<?xml version="1.0" encoding="UTF-8"?>
<svg xmlns="http://www.w3.org/2000/svg" xmlns:xlink="http://www.w3.org/1999/xlink" width="2194px" height="2500px" viewBox="0 0 2194 2500" version="1.1">
<g id="surface1">
<path style=" stroke:none;fill-rule:nonzero;fill:rgb(32.549021%,50.980395%,63.137257%);fill-opacity:1;" d="M 707.402344 1932.609375 C 707.402344 1932.609375 594.308594 1988.0625 787.890625 2006.828125 C 1022.414062 2029.386719 1142.269531 2026.15625 1400.71875 1984.90625 C 1400.71875 1984.90625 1468.671875 2020.832031 1563.554688 2051.949219 C 984.199219 2261.320312 252.339844 2039.820312 707.402344 1932.609375 M 636.605469 1659.386719 C 636.605469 1659.386719 509.757812 1738.5625 703.488281 1755.457031 C 954.007812 1777.246094 1151.851562 1779.03125 1494.199219 1723.445312 C 1494.199219 1723.445312 1541.550781 1763.921875 1616.003906 1786.0625 C 915.519531 1958.777344 135.304688 1799.683594 636.605469 1659.386719 "/>
<path style=" stroke:none;fill-rule:nonzero;fill:rgb(90.588236%,43.529412%,0%);fill-opacity:1;" d="M 1233.433594 1195.917969 C 1376.195312 1334.5 1195.929688 1459.210938 1195.929688 1459.210938 C 1195.929688 1459.210938 1558.40625 1301.429688 1391.933594 1103.84375 C 1236.460938 919.59375 1117.222656 828.035156 1762.699219 512.382812 C 1762.699219 512.382812 749.519531 725.75 1233.433594 1195.910156 "/>
<path style=" stroke:none;fill-rule:nonzero;fill:rgb(32.549021%,50.980395%,63.137257%);fill-opacity:1;" d="M 1999.691406 2134.695312 C 1999.691406 2134.695312 2083.382812 2192.839844 1907.511719 2237.824219 C 1573.101562 2323.25 515.636719 2349.046875 221.875 2241.226562 C 116.28125 2202.5 314.308594 2148.742188 376.597656 2137.457031 C 441.558594 2125.578125 478.6875 2127.796875 478.6875 2127.796875 C 361.25 2058.035156 -280.375 2264.769531 152.777344 2323.964844 C 1334.035156 2485.5 2306.089844 2251.234375 1999.691406 2134.695312 M 761.78125 1376.300781 C 761.78125 1376.300781 223.898438 1484.03125 571.3125 1523.144531 C 717.996094 1539.703125 1010.410156 1535.960938 1282.792969 1516.710938 C 1505.398438 1500.890625 1728.917969 1467.21875 1728.917969 1467.21875 C 1728.917969 1467.21875 1650.425781 1495.5625 1593.640625 1528.257812 C 1047.417969 1649.394531 -7.78125 1593.042969 296 1469.132812 C 552.90625 1364.421875 761.789062 1376.300781 761.789062 1376.300781 M 1726.699219 1831.082031 C 2281.96875 1587.789062 2025.234375 1353.988281 1846.039062 1385.492188 C 1802.113281 1393.195312 1782.535156 1399.871094 1782.535156 1399.871094 C 1782.535156 1399.871094 1798.839844 1378.339844 1829.980469 1369.015625 C 2184.480469 1263.921875 2457.117188 1678.964844 1715.542969 1843.34375 C 1715.542969 1843.351562 1724.136719 1836.878906 1726.699219 1831.082031 "/>
<path style=" stroke:none;fill-rule:nonzero;fill:rgb(90.588236%,43.529412%,0%);fill-opacity:1;" d="M 1391.933594 2.679688 C 1391.933594 2.679688 1699.449219 262.074219 1100.273438 660.925781 C 619.800781 980.882812 990.710938 1163.308594 1100.078125 1371.742188 C 819.613281 1158.375 613.785156 970.542969 751.875 795.730469 C 954.539062 539.105469 1516.003906 414.6875 1391.933594 2.671875 "/>
<path style=" stroke:none;fill-rule:nonzero;fill:rgb(32.549021%,50.980395%,63.137257%);fill-opacity:1;" d="M 816.347656 2490.355469 C 1349.332031 2519.125 2167.777344 2474.394531 2187.160156 2261.742188 C 2187.160156 2261.742188 2149.902344 2342.363281 1746.683594 2406.378906 C 1291.773438 2478.5625 730.710938 2470.136719 397.933594 2423.871094 C 397.941406 2423.871094 466.058594 2471.417969 816.359375 2490.355469 "/>
</g>
</svg>
