<?xml version="1.0" encoding="UTF-8"?>
<svg xmlns="http://www.w3.org/2000/svg" xmlns:xlink="http://www.w3.org/1999/xlink" width="2194px" height="2500px" viewBox="0 0 2194 2500" version="1.1">
<defs>
<linearGradient id="linear0" gradientUnits="userSpaceOnUse" x1="63.330002" y1="84.029999" x2="241.669998" y2="84.029999" gradientTransform="matrix(7.514863,0,0,-8.562971,64.031377,2278.397944)">
<stop offset="0" style="stop-color:rgb(4.705882%,34.901961%,64.313725%);stop-opacity:1;"/>
<stop offset="1" style="stop-color:rgb(6.666667%,29.019608%,54.509804%);stop-opacity:1;"/>
</linearGradient>
<filter id="alpha" filterUnits="objectBoundingBox" x="0%" y="0%" width="100%" height="100%">
  <feColorMatrix type="matrix" in="SourceGraphic" values="0 0 0 0 1 0 0 0 0 1 0 0 0 0 1 0 0 0 1 0"/>
</filter>
<mask id="mask0">
  <g filter="url(#alpha)">
<rect x="0" y="0" width="2194" height="2500" style="fill:rgb(0%,0%,0%);fill-opacity:0.34902;stroke:none;"/>
  </g>
</mask>
<radialGradient id="radial0" gradientUnits="userSpaceOnUse" cx="161.830002" cy="68.910004" fx="161.830002" fy="68.910004" r="95.379997" gradientTransform="matrix(7.514863,0,0,-8.134822,64.031377,2131.45733)">
<stop offset="0.72" style="stop-color:rgb(0%,0%,0%);stop-opacity:0;"/>
<stop offset="0.95" style="stop-color:rgb(0%,0%,0%);stop-opacity:0.529412;"/>
<stop offset="1" style="stop-color:rgb(0%,0%,0%);stop-opacity:1;"/>
</radialGradient>
<clipPath id="clip1">
  <rect x="0" y="0" width="2194" height="2500"/>
</clipPath>
<g id="surface5" clip-path="url(#clip1)">
<path style=" stroke:none;fill-rule:nonzero;fill:url(#radial0);" d="M 1835.132812 1674.367188 C 1809.484375 1689.652344 1783.03125 1703.121094 1755.925781 1714.699219 C 1669.652344 1751.480469 1578.261719 1770.222656 1486.144531 1770.015625 C 1130.539062 1770.015625 820.777344 1491.289062 820.777344 1133.613281 C 821.707031 1035.929688 868.941406 946.457031 944.246094 899.757812 C 622.609375 915.171875 539.949219 1297.082031 539.949219 1520.832031 C 539.949219 2153.464844 1051.632812 2217.601562 1161.878906 2217.601562 C 1221.320312 2217.601562 1310.972656 2197.90625 1364.777344 2178.554688 L 1374.625 2174.785156 C 1581.675781 2093.222656 1758.191406 1933.765625 1875.113281 1722.660156 C 1882.480469 1709.433594 1881.035156 1692.199219 1871.601562 1680.804688 C 1862.167969 1669.410156 1847.152344 1666.757812 1835.132812 1674.367188 Z M 1835.132812 1674.367188 "/>
</g>
<linearGradient id="linear1" gradientUnits="userSpaceOnUse" x1="157.350006" y1="161.389999" x2="45.959999" y2="40.060001" gradientTransform="matrix(7.514863,0,0,-8.562971,64.031377,2278.397944)">
<stop offset="0" style="stop-color:rgb(10.588235%,61.568627%,88.627451%);stop-opacity:1;"/>
<stop offset="0.16" style="stop-color:rgb(8.235294%,58.431373%,87.45098%);stop-opacity:1;"/>
<stop offset="0.67" style="stop-color:rgb(2.352941%,50.196078%,84.313725%);stop-opacity:1;"/>
<stop offset="1" style="stop-color:rgb(0%,47.058824%,83.137255%);stop-opacity:1;"/>
</linearGradient>
<mask id="mask1">
  <g filter="url(#alpha)">
<rect x="0" y="0" width="2194" height="2500" style="fill:rgb(0%,0%,0%);fill-opacity:0.411765;stroke:none;"/>
  </g>
</mask>
<radialGradient id="radial1" gradientUnits="userSpaceOnUse" cx="-340.290009" cy="62.990002" fx="-340.290009" fy="62.990002" r="143.240005" gradientTransform="matrix(1.12723,-8.477341,-6.011891,-1.027557,1391.456838,-1073.148928)">
<stop offset="0.76" style="stop-color:rgb(0%,0%,0%);stop-opacity:0;"/>
<stop offset="0.95" style="stop-color:rgb(0%,0%,0%);stop-opacity:0.501961;"/>
<stop offset="1" style="stop-color:rgb(0%,0%,0%);stop-opacity:1;"/>
</radialGradient>
<clipPath id="clip2">
  <rect x="0" y="0" width="2194" height="2500"/>
</clipPath>
<g id="surface8" clip-path="url(#clip2)">
<path style=" stroke:none;fill-rule:nonzero;fill:url(#radial1);" d="M 893.222656 2110.050781 C 826.195312 2062.644531 768.105469 2000.53125 722.332031 1927.316406 C 616.730469 1762.453125 580.472656 1552.839844 623.273438 1354.648438 C 666.078125 1156.457031 783.5625 989.953125 944.246094 899.757812 C 967.695312 887.171875 1007.746094 864.394531 1061.027344 865.507812 C 1137.125 866.140625 1208.570312 907.335938 1254.085938 976.828125 C 1284.433594 1022.996094 1301.164062 1078.933594 1301.878906 1136.613281 C 1301.878906 1134.8125 1485.691406 455 700.691406 455 C 370.789062 455 99.5 811.730469 99.5 1124.707031 C 98.199219 1290.269531 129.289062 1454.082031 190.507812 1604.234375 C 397.597656 2107.722656 902.742188 2354.738281 1365.679688 2178.894531 C 1207.199219 2235.832031 1034.78125 2210.796875 893.898438 2110.390625 Z M 893.222656 2110.050781 "/>
</g>
<radialGradient id="radial2" gradientUnits="userSpaceOnUse" cx="113.370003" cy="570.210022" fx="113.370003" fy="570.210022" r="202.429993" gradientTransform="matrix(-0.300595,8.562971,16.00666,0.685038,-8800.050858,-912.935748)">
<stop offset="0" style="stop-color:rgb(20.784314%,75.686275%,94.509804%);stop-opacity:1;"/>
<stop offset="0.11" style="stop-color:rgb(20.392157%,75.686275%,92.941176%);stop-opacity:1;"/>
<stop offset="0.23" style="stop-color:rgb(18.431373%,76.078431%,87.45098%);stop-opacity:1;"/>
<stop offset="0.31" style="stop-color:rgb(16.862745%,76.470588%,82.352941%);stop-opacity:1;"/>
<stop offset="0.67" style="stop-color:rgb(21.176471%,78.039216%,32.156863%);stop-opacity:1;"/>
</radialGradient>
<radialGradient id="radial3" gradientUnits="userSpaceOnUse" cx="376.519989" cy="567.969971" fx="376.519989" fy="567.969971" r="97.339996" gradientTransform="matrix(2.104162,8.220452,5.861593,-1.969483,-2218.683595,-1270.953545)">
<stop offset="0" style="stop-color:rgb(40%,92.156863%,43.137255%);stop-opacity:1;"/>
<stop offset="1" style="stop-color:rgb(40%,92.156863%,43.137255%);stop-opacity:0;"/>
</radialGradient>
</defs>
<g id="surface1">
<path style=" stroke:none;fill-rule:nonzero;fill:url(#linear0);" d="M 1835.132812 1674.367188 C 1809.484375 1689.652344 1783.03125 1703.121094 1755.925781 1714.699219 C 1669.652344 1751.480469 1578.261719 1770.222656 1486.144531 1770.015625 C 1130.539062 1770.015625 820.777344 1491.289062 820.777344 1133.613281 C 821.707031 1035.929688 868.941406 946.457031 944.246094 899.757812 C 622.609375 915.171875 539.949219 1297.082031 539.949219 1520.832031 C 539.949219 2153.464844 1051.632812 2217.601562 1161.878906 2217.601562 C 1221.320312 2217.601562 1310.972656 2197.90625 1364.777344 2178.554688 L 1374.625 2174.785156 C 1581.675781 2093.222656 1758.191406 1933.765625 1875.113281 1722.660156 C 1882.480469 1709.433594 1881.035156 1692.199219 1871.601562 1680.804688 C 1862.167969 1669.410156 1847.152344 1666.757812 1835.132812 1674.367188 Z M 1835.132812 1674.367188 "/>
<use xlink:href="#surface5" mask="url(#mask0)"/>
<path style=" stroke:none;fill-rule:nonzero;fill:url(#linear1);" d="M 893.222656 2110.050781 C 826.195312 2062.644531 768.105469 2000.53125 722.332031 1927.316406 C 616.730469 1762.453125 580.472656 1552.839844 623.273438 1354.648438 C 666.078125 1156.457031 783.5625 989.953125 944.246094 899.757812 C 967.695312 887.171875 1007.746094 864.394531 1061.027344 865.507812 C 1137.125 866.140625 1208.570312 907.335938 1254.085938 976.828125 C 1284.433594 1022.996094 1301.164062 1078.933594 1301.878906 1136.613281 C 1301.878906 1134.8125 1485.691406 455 700.691406 455 C 370.789062 455 99.5 811.730469 99.5 1124.707031 C 98.199219 1290.269531 129.289062 1454.082031 190.507812 1604.234375 C 397.597656 2107.722656 902.742188 2354.738281 1365.679688 2178.894531 C 1207.199219 2235.832031 1034.78125 2210.796875 893.898438 2110.390625 Z M 893.222656 2110.050781 "/>
<use xlink:href="#surface8" mask="url(#mask1)"/>
<path style=" stroke:none;fill-rule:nonzero;fill:url(#radial2);" d="M 1243.414062 1317.460938 C 1237.328125 1326.453125 1218.613281 1338.867188 1218.613281 1365.929688 C 1218.613281 1388.277344 1231.390625 1409.769531 1254.085938 1427.839844 C 1362.148438 1513.46875 1565.875 1502.164062 1566.402344 1502.164062 C 1646.476562 1501.945312 1725.03125 1477.253906 1793.878906 1430.664062 C 1935.199219 1336.636719 2022.21875 1164.328125 2022.554688 977.855469 C 2024.507812 785.957031 1962.4375 658.371094 1937.335938 601.855469 C 1778.097656 246.917969 1434.367188 42.777344 1060.578125 42.777344 C 534.570312 42.71875 106.070312 524.113281 98.675781 1123.425781 C 102.28125 810.535156 375.222656 557.839844 699.863281 557.839844 C 726.164062 557.839844 876.164062 560.75 1015.488281 644.070312 C 1138.28125 717.539062 1202.609375 806.253906 1247.320312 894.195312 C 1293.761719 985.5625 1302.03125 1100.988281 1302.03125 1146.972656 C 1302.03125 1192.957031 1281.4375 1261.117188 1243.414062 1317.460938 Z M 1243.414062 1317.460938 "/>
<path style=" stroke:none;fill-rule:nonzero;fill:url(#radial3);" d="M 1243.414062 1317.460938 C 1237.328125 1326.453125 1218.613281 1338.867188 1218.613281 1365.929688 C 1218.613281 1388.277344 1231.390625 1409.769531 1254.085938 1427.839844 C 1362.148438 1513.46875 1565.875 1502.164062 1566.402344 1502.164062 C 1646.476562 1501.945312 1725.03125 1477.253906 1793.878906 1430.664062 C 1935.199219 1336.636719 2022.21875 1164.328125 2022.554688 977.855469 C 2024.507812 785.957031 1962.4375 658.371094 1937.335938 601.855469 C 1778.097656 246.917969 1434.367188 42.777344 1060.578125 42.777344 C 534.570312 42.71875 106.070312 524.113281 98.675781 1123.425781 C 102.28125 810.535156 375.222656 557.839844 699.863281 557.839844 C 726.164062 557.839844 876.164062 560.75 1015.488281 644.070312 C 1138.28125 717.539062 1202.609375 806.253906 1247.320312 894.195312 C 1293.761719 985.5625 1302.03125 1100.988281 1302.03125 1146.972656 C 1302.03125 1192.957031 1281.4375 1261.117188 1243.414062 1317.460938 Z M 1243.414062 1317.460938 "/>
</g>
</svg>
