<?xml version="1.0" encoding="UTF-8"?>
<svg xmlns="http://www.w3.org/2000/svg" xmlns:xlink="http://www.w3.org/1999/xlink" width="2194px" height="2500px" viewBox="0 0 2194 2500" version="1.1">
<g id="surface1">
<path style=" stroke:none;fill-rule:evenodd;fill:rgb(87.843138%,13.725491%,30.588236%);fill-opacity:1;" d="M 1172.050781 80.609375 C 1157.65625 80.609375 1144.292969 84.25 1131.953125 89.101562 C 1158.175781 109.71875 1172.566406 137.007812 1179.765625 167.925781 C 1180.28125 172.175781 1181.308594 175.207031 1181.816406 179.449219 C 1182.335938 183.089844 1182.851562 186.722656 1182.851562 190.363281 C 1184.90625 243.726562 1171.023438 250.390625 1161.253906 281.929688 C 1146.347656 322.558594 1150.457031 366.214844 1168.453125 401.382812 C 1169.996094 405.625 1172.050781 410.476562 1174.625 414.71875 C 1155.089844 261.3125 1263.558594 238.265625 1283.605469 190.363281 C 1285.148438 148.519531 1255.839844 120.632812 1232.714844 101.226562 C 1210.601562 85.460938 1190.550781 80.609375 1172.050781 80.609375 Z M 1335.527344 115.171875 C 1333.460938 129.125 1335.011719 125.484375 1334.492188 132.753906 C 1333.984375 137.605469 1333.984375 143.667969 1333.46875 148.519531 C 1332.441406 153.371094 1331.414062 158.222656 1329.871094 163.074219 C 1328.835938 167.925781 1327.300781 172.777344 1325.757812 177.628906 C 1323.699219 182.480469 1322.164062 186.730469 1320.109375 191.574219 C 1318.558594 194.003906 1317.53125 196.425781 1315.988281 198.855469 L 1312.902344 204.304688 C 1310.332031 208.558594 1307.765625 212.800781 1305.195312 216.441406 C 1302.109375 220.082031 1299.546875 224.320312 1295.941406 227.351562 L 1295.941406 227.964844 C 1292.855469 230.992188 1289.777344 234.625 1286.171875 237.664062 C 1275.378906 247.359375 1263.039062 254.640625 1251.726562 263.734375 C 1248.132812 266.765625 1244.535156 269.195312 1241.449219 272.835938 C 1237.855469 275.867188 1234.765625 278.898438 1231.6875 282.527344 C 1228.085938 286.171875 1225.515625 289.8125 1222.429688 294.050781 C 1219.859375 297.695312 1216.78125 301.933594 1214.71875 306.1875 C 1212.152344 310.425781 1209.582031 314.667969 1207.519531 318.917969 C 1205.46875 323.769531 1203.925781 328.011719 1201.871094 332.863281 C 1200.328125 337.714844 1198.785156 341.964844 1197.761719 346.808594 C 1196.386719 351.804688 1195.183594 356.863281 1194.15625 361.972656 C 1193.648438 364.394531 1193.648438 367.421875 1193.128906 369.855469 C 1192.613281 372.273438 1192.613281 374.707031 1192.105469 377.125 C 1192.105469 381.976562 1191.585938 387.4375 1191.585938 392.289062 C 1191.585938 395.921875 1191.585938 399.5625 1192.105469 403.203125 C 1192.105469 408.054688 1192.621094 412.90625 1193.648438 418.359375 C 1194.164062 423.210938 1195.191406 428.0625 1196.214844 432.914062 C 1197.761719 437.765625 1198.785156 442.617188 1200.328125 447.457031 C 1201.363281 450.496094 1202.898438 453.527344 1203.925781 455.960938 L 1085.695312 401.984375 C 1065.648438 395.320312 1046.109375 389.25 1026.0625 383.796875 L 993.679688 374.695312 C 962.742188 367.421875 931.519531 361.957031 900.125 358.332031 C 899.089844 358.332031 898.574219 357.722656 897.546875 357.722656 C 866.707031 354.082031 836.375 352.269531 805.53125 352.269531 C 782.914062 352.269531 760.296875 353.480469 738.191406 355.300781 C 706.832031 357.722656 675.472656 362.574219 644.121094 368.632812 C 636.40625 369.855469 628.6875 371.664062 620.988281 373.484375 C 605.046875 377.125 589.628906 381.367188 574.71875 385.617188 L 551.585938 392.890625 C 543.871094 396.53125 536.679688 400.773438 529.480469 404.414062 L 512.519531 413.515625 C 511.484375 414.117188 510.457031 414.117188 509.949219 414.71875 C 504.808594 417.75 500.179688 420.179688 495.550781 423.210938 C 494.015625 423.820312 492.980469 424.429688 491.953125 425.03125 C 486.304688 428.0625 480.652344 431.691406 476.019531 434.734375 C 472.425781 436.554688 468.820312 438.976562 465.742188 440.796875 C 464.199219 442.015625 462.140625 443.226562 461.113281 443.824219 C 456.484375 446.855469 451.859375 449.886719 447.746094 452.929688 C 443.117188 455.949219 439.003906 458.988281 435.410156 462.019531 C 431.8125 465.050781 428.210938 467.472656 425.132812 470.503906 C 424.613281 471.113281 424.097656 471.113281 423.589844 471.722656 C 420.5 474.144531 416.90625 477.175781 413.820312 480.207031 L 412.785156 481.425781 L 405.085938 488.699219 C 404.050781 489.300781 403.015625 490.519531 401.996094 491.121094 C 399.429688 493.550781 396.859375 496.582031 394.28125 499.003906 C 393.773438 500.222656 392.746094 500.824219 392.230469 501.433594 C 389.140625 505.074219 386.0625 508.09375 382.976562 511.734375 C 382.460938 511.734375 382.460938 512.347656 381.941406 512.957031 C 378.863281 515.988281 375.777344 519.617188 372.691406 523.257812 C 372.183594 523.867188 372.183594 524.480469 371.664062 524.480469 C 368.96875 527.566406 366.394531 530.800781 363.957031 534.171875 C 362.921875 535.390625 361.386719 536.601562 360.359375 537.8125 C 357.792969 541.453125 354.703125 545.085938 351.617188 548.726562 C 351.101562 549.945312 350.074219 550.546875 349.566406 551.757812 C 345.453125 556.609375 341.847656 561.460938 337.734375 566.3125 L 336.199219 568.132812 C 327.976562 578.433594 319.234375 588.75 309.980469 597.839844 C 300.867188 607.433594 291.25 616.34375 281.191406 624.519531 C 271.222656 632.765625 260.929688 640.457031 250.347656 647.566406 C 239.855469 654.355469 229.042969 660.429688 217.964844 665.761719 C 207.03125 671.238281 195.878906 676.089844 184.550781 680.304688 C 162.960938 685.765625 140.855469 696.070312 121.832031 697.890625 C 117.71875 697.890625 113.097656 699.109375 108.984375 699.710938 C 104.355469 700.929688 100.242188 702.140625 96.128906 703.351562 L 83.800781 708.8125 C 79.679688 710.625 75.566406 713.054688 71.453125 715.476562 C 67.859375 718.507812 63.746094 720.9375 60.148438 723.96875 C 56.546875 727 52.949219 730.628906 49.863281 734.28125 C 46.265625 737.3125 42.671875 741.550781 39.585938 745.195312 C 36.5 749.433594 33.417969 753.074219 30.84375 757.316406 C 28.273438 762.167969 25.195312 766.417969 23.132812 771.261719 C 20.5625 775.511719 17.996094 780.363281 15.941406 785.214844 C 13.875 790.667969 11.828125 795.519531 10.285156 800.980469 C 8.664062 806.203125 7.121094 811.457031 5.65625 816.746094 C 4.628906 821.597656 3.605469 826.445312 3.085938 831.289062 C 3.085938 831.910156 2.570312 832.507812 2.570312 833.117188 C 1.542969 838.570312 1.542969 845.851562 1.027344 849.484375 C 0.515625 853.734375 0 857.367188 0 861.617188 C 0 864.039062 0 867.070312 0.515625 869.5 C 1.035156 873.742188 1.550781 877.382812 2.578125 881.023438 C 3.605469 884.65625 4.628906 888.296875 6.171875 891.9375 L 6.171875 892.535156 C 7.714844 896.175781 9.769531 899.820312 11.820312 903.460938 C 13.890625 907.089844 15.941406 910.730469 18.503906 914.371094 C 21.082031 917.402344 24.167969 921.035156 27.253906 924.074219 C 30.332031 927.707031 33.417969 930.738281 37.015625 933.777344 C 49.355469 946.511719 52.441406 950.753906 68.375 960.457031 C 70.945312 962.277344 73.511719 963.488281 76.601562 965.308594 C 77.117188 965.308594 77.625 965.90625 78.144531 965.90625 C 78.144531 967.128906 78.144531 967.726562 78.652344 968.949219 C 79.167969 973.800781 80.195312 978.652344 81.230469 983.492188 C 82.207031 988.484375 83.582031 993.359375 85.335938 998.046875 C 86.878906 1001.6875 87.914062 1005.328125 89.449219 1008.96875 C 89.964844 1010.179688 90.480469 1011.390625 90.992188 1012 C 93.050781 1016.851562 95.105469 1021.09375 97.164062 1025.335938 L 104.871094 1038.070312 C 107.441406 1041.710938 110.519531 1045.949219 113.617188 1049.59375 C 116.695312 1053.234375 119.78125 1056.253906 123.375 1059.90625 C 123.375 1059.90625 123.894531 1060.503906 124.410156 1060.503906 C 127.488281 1063.535156 130.574219 1066.578125 133.664062 1068.996094 C 137.257812 1072.027344 140.855469 1074.457031 144.96875 1076.878906 C 148.570312 1079.308594 152.683594 1081.730469 156.796875 1083.542969 C 159.875 1085.371094 163.476562 1086.582031 167.074219 1087.792969 C 167.589844 1088.402344 168.101562 1088.402344 169.125 1089.011719 C 171.195312 1089.613281 173.757812 1090.222656 175.808594 1090.824219 C 174.273438 1123.574219 173.757812 1154.492188 177.878906 1165.40625 C 182.492188 1177.539062 205.117188 1140.546875 227.730469 1098.105469 C 224.644531 1139.9375 222.59375 1189.0625 227.730469 1203.605469 C 233.386719 1218.769531 264.230469 1171.476562 290.960938 1119.324219 C 655.433594 1019.882812 988.03125 1317.007812 1022.984375 1736.613281 C 1016.304688 1671.121094 947.929688 1634.742188 916.570312 1643.835938 C 901.152344 1688.707031 874.933594 1746.3125 832.777344 1782.09375 C 836.460938 1741.601562 834.726562 1700.675781 827.636719 1660.820312 C 816.335938 1716.605469 794.226562 1768.75 763.894531 1813.625 C 715.066406 1817.863281 666.226562 1789.976562 640.523438 1748.125 C 638.464844 1746.3125 637.957031 1742.683594 636.414062 1740.242188 C 634.871094 1736 633.324219 1731.761719 632.300781 1727.519531 C 630.800781 1723.453125 629.761719 1719.171875 629.214844 1714.785156 C 628.695312 1710.535156 628.695312 1706.292969 628.695312 1701.441406 L 628.695312 1692.339844 C 629.214844 1688.097656 630.238281 1683.855469 631.265625 1679.613281 C 632.300781 1675.363281 633.324219 1671.121094 634.871094 1666.882812 C 636.921875 1662.628906 638.464844 1658.390625 641.035156 1654.148438 C 649.777344 1625.039062 649.777344 1601.390625 633.84375 1587.449219 C 630.757812 1585.066406 627.484375 1583.03125 624.074219 1581.375 C 622.011719 1580.777344 619.445312 1579.566406 617.390625 1578.957031 C 615.847656 1578.34375 614.820312 1577.734375 613.277344 1577.136719 C 609.675781 1575.914062 606.078125 1574.703125 602.484375 1574.105469 C 598.976562 1572.90625 595.339844 1572.292969 591.6875 1572.285156 C 588.085938 1571.671875 583.972656 1571.0625 580.375 1571.0625 C 577.808594 1571.0625 575.238281 1571.683594 572.660156 1571.683594 C 568.554688 1571.683594 564.960938 1572.285156 561.363281 1573.496094 C 557.761719 1574.105469 554.164062 1574.714844 550.558594 1575.925781 C 546.964844 1577.144531 543.359375 1578.355469 539.765625 1580.167969 C 536.167969 1581.988281 533.082031 1583.808594 529.488281 1585.628906 C 526.402344 1587.449219 523.3125 1589.867188 519.71875 1591.6875 C 399.945312 1683.855469 471.398438 1899.730469 553.128906 1962.1875 C 522.289062 1968.847656 490.929688 1976.730469 482.195312 1984.613281 L 481.160156 1985.832031 C 503.273438 2001.597656 526.402344 2014.941406 550.558594 2026.464844 C 583.464844 2039.1875 618.417969 2050.710938 633.84375 2055.5625 L 633.84375 2056.175781 C 676.433594 2066.476562 719.984375 2070.144531 763.382812 2067.085938 C 991.109375 2048.292969 1177.714844 1843.941406 1211.640625 1574.714844 C 1212.675781 1580.167969 1213.703125 1585.015625 1214.726562 1590.480469 C 1216.273438 1601.390625 1218.324219 1612.90625 1219.351562 1624.4375 L 1219.351562 1625.039062 C 1220.382812 1630.5 1220.894531 1635.960938 1221.410156 1640.804688 L 1221.410156 1643.242188 C 1221.929688 1648.6875 1222.445312 1654.148438 1222.445312 1659.007812 C 1222.953125 1665.671875 1223.464844 1672.332031 1223.464844 1679.015625 L 1223.464844 1688.71875 C 1223.464844 1691.746094 1223.980469 1695.378906 1223.980469 1698.410156 C 1223.980469 1702.050781 1223.464844 1705.691406 1223.464844 1709.332031 L 1223.464844 1717.816406 C 1223.464844 1722.066406 1222.945312 1725.699219 1222.945312 1729.949219 C 1222.945312 1732.371094 1222.945312 1734.800781 1222.4375 1737.832031 C 1222.4375 1742.074219 1221.917969 1746.3125 1221.917969 1751.164062 C 1221.402344 1752.984375 1221.402344 1754.804688 1221.402344 1756.625 C 1220.894531 1761.476562 1220.375 1765.730469 1219.859375 1770.570312 C 1219.859375 1772.390625 1219.859375 1774.210938 1219.351562 1776.03125 C 1218.832031 1782.09375 1217.808594 1787.554688 1217.289062 1793.617188 L 1217.289062 1794.828125 C 1216.265625 1800.289062 1215.238281 1806.351562 1214.203125 1811.8125 L 1214.203125 1813.625 L 1211.125 1830 C 1211.125 1830.609375 1210.609375 1831.820312 1210.609375 1832.429688 C 1209.574219 1837.878906 1208.546875 1843.34375 1207.011719 1848.792969 L 1207.011719 1850.613281 C 1205.46875 1856.683594 1203.925781 1862.136719 1202.898438 1867.597656 C 1202.382812 1868.199219 1202.382812 1868.808594 1202.382812 1868.808594 L 1197.753906 1886.996094 C 1195.699219 1893.066406 1194.15625 1898.519531 1192.105469 1904.578125 C 1190.042969 1910.652344 1188.5 1916.714844 1186.449219 1922.164062 C 1184.386719 1928.234375 1182.335938 1933.6875 1180.273438 1939.75 L 1179.765625 1939.75 C 1177.695312 1945.210938 1175.652344 1951.273438 1173.082031 1956.734375 C 1172.566406 1958.554688 1172.050781 1959.765625 1171.539062 1960.976562 C 1171.023438 1961.585938 1171.023438 1962.195312 1170.503906 1962.796875 C 1137.09375 2042.230469 1087.75 2111.960938 1026.054688 2166.535156 C 1021.941406 2169.566406 1017.832031 2173.199219 1013.726562 2176.847656 C 1012.691406 2178.058594 1011.148438 2178.660156 1010.121094 2179.878906 C 1006.527344 2182.910156 1002.921875 2185.941406 998.816406 2188.972656 L 1000.351562 2192.613281 L 1000.871094 2192.613281 L 1022.460938 2188.972656 L 1022.976562 2188.972656 C 1036.34375 2186.542969 1049.707031 2183.511719 1063.070312 2180.480469 C 1066.667969 2179.871094 1070.789062 2178.660156 1074.382812 2177.449219 C 1076.953125 2176.839844 1079.003906 2176.238281 1081.574219 2175.628906 C 1085.179688 2175.027344 1088.773438 2173.808594 1092.371094 2173.207031 C 1095.457031 2171.988281 1098.542969 2171.386719 1101.628906 2170.175781 C 1153.035156 2155.621094 1202.898438 2135.605469 1250.710938 2111.960938 C 1168.96875 2243.546875 1059.46875 2349.660156 931.46875 2419.390625 C 990.59375 2414.539062 1049.707031 2403.023438 1106.769531 2383.617188 C 1313.9375 2311.457031 1488.203125 2147.128906 1592.550781 1925.804688 C 1571.371094 2066.199219 1524.152344 2199.335938 1454.273438 2315.699219 C 1504.09375 2276.9375 1550.121094 2231.792969 1591.523438 2181.089844 C 1706.675781 2039.199219 1782.242188 1859.105469 1807.945312 1665.671875 C 1825.480469 1761.636719 1830.507812 1860.191406 1822.851562 1957.945312 C 2194 1347.328125 1853.695312 714.273438 1711.296875 547.527344 C 1710.789062 546.304688 1710.269531 545.703125 1710.269531 544.496094 C 1709.761719 545.09375 1709.761719 545.09375 1709.761719 545.703125 C 1709.761719 545.09375 1709.761719 545.09375 1709.246094 544.484375 C 1709.246094 551.765625 1708.726562 559.039062 1708.210938 566.320312 C 1706.675781 580.265625 1705.132812 593.609375 1703.070312 606.953125 C 1700.503906 620.285156 1697.421875 633.628906 1694.335938 646.964844 C 1690.679688 660.09375 1686.566406 673.042969 1682.007812 685.777344 C 1677.277344 698.339844 1672.128906 710.679688 1666.574219 722.765625 C 1660.925781 734.28125 1654.75 746.414062 1648.070312 757.328125 C 1641.457031 768.605469 1634.421875 779.53125 1626.988281 790.074219 C 1619.28125 800.988281 1611.0625 810.691406 1602.835938 820.386719 C 1597.996094 825.613281 1593.023438 830.667969 1587.929688 835.550781 C 1583.816406 839.789062 1580.210938 843.429688 1576.097656 847.671875 C 1566.847656 856.164062 1557.59375 864.046875 1547.316406 871.320312 C 1537.546875 878.601562 1527.269531 885.875 1516.984375 891.945312 C 1506.1875 898.007812 1495.394531 903.460938 1484.605469 908.921875 C 1473.804688 913.773438 1462.492188 918.023438 1451.1875 921.65625 C 1439.820312 925.265625 1428.328125 928.300781 1416.742188 930.757812 C 1404.921875 933.175781 1393.097656 934.386719 1381.785156 935.597656 C 1373.5625 936.207031 1365.335938 936.820312 1357.109375 936.820312 C 1345.289062 936.820312 1333.46875 935.597656 1322.15625 934.378906 C 1310.332031 933.175781 1298.511719 931.355469 1287.199219 928.324219 C 1275.378906 925.886719 1264.066406 922.253906 1252.753906 918.011719 L 1252.246094 918.011719 C 1263.558594 916.792969 1274.863281 915.582031 1286.171875 913.160156 C 1297.769531 910.773438 1309.265625 907.734375 1320.621094 904.058594 C 1331.925781 900.457031 1343.074219 896.210938 1354.03125 891.335938 C 1365.335938 886.484375 1376.128906 880.421875 1386.410156 874.351562 C 1397.210938 868.289062 1406.980469 861.617188 1417.257812 854.34375 C 1427.027344 846.460938 1436.789062 838.582031 1446.046875 830.089844 C 1455.257812 821.640625 1464.011719 812.527344 1472.261719 802.800781 C 1481.003906 793.699219 1488.710938 783.394531 1496.421875 773.089844 C 1503.933594 762.472656 1511.136719 751.550781 1518.011719 740.34375 C 1519.042969 738.53125 1520.070312 736.101562 1521.097656 734.28125 C 1526.238281 724.578125 1531.375 714.875 1536.003906 705.171875 C 1541.660156 693.152344 1546.808594 680.808594 1551.429688 668.191406 C 1556.074219 655.496094 1560.1875 642.546875 1563.761719 629.378906 C 1567.363281 616.644531 1569.933594 603.300781 1572.503906 589.96875 C 1574.5625 576.023438 1576.617188 562.679688 1577.644531 549.335938 C 1578.675781 535.390625 1579.703125 521.449219 1579.703125 508.105469 C 1579.703125 498.402344 1579.1875 488.699219 1578.667969 478.996094 C 1577.652344 465.050781 1576.105469 451.71875 1574.5625 438.363281 C 1572.535156 424.6875 1569.960938 411.132812 1566.847656 397.742188 C 1563.25 385.007812 1559.65625 371.675781 1555.542969 358.941406 C 1551.429688 346.207031 1546.292969 333.472656 1541.144531 321.339844 C 1535.496094 309.214844 1529.839844 297.09375 1523.667969 285.570312 C 1517.105469 274.207031 1510.25 263.085938 1503.109375 252.21875 C 1495.371094 241.761719 1487.484375 231.449219 1479.460938 221.292969 C 1475.128906 216.089844 1470.671875 211.035156 1466.09375 206.136719 C 1443.066406 185.039062 1419.222656 165.210938 1394.640625 146.710938 C 1391.046875 144.277344 1387.960938 142.46875 1384.355469 140.648438 C 1367.394531 127.914062 1351.460938 121.242188 1335.527344 115.179688 Z M 1335.527344 115.171875 "/>
</g>
</svg>
