<?xml version="1.0" encoding="UTF-8"?>
<svg xmlns="http://www.w3.org/2000/svg" xmlns:xlink="http://www.w3.org/1999/xlink" width="2194px" height="2500px" viewBox="0 0 2194 2500" version="1.1">
<defs>
<linearGradient id="linear0" gradientUnits="userSpaceOnUse" x1="0.12959" y1="0.12039" x2="0.79639" y2="0.78201" gradientTransform="matrix(1622.902344,0,0,1860.734375,1.242187,0.707031)">
<stop offset="0" style="stop-color:rgb(21.960784%,49.411765%,72.156863%);stop-opacity:1;"/>
<stop offset="1" style="stop-color:rgb(21.176471%,41.176471%,58.039216%);stop-opacity:1;"/>
</linearGradient>
<linearGradient id="linear1" gradientUnits="userSpaceOnUse" x1="0.19128" y1="0.20579" x2="0.90742" y2="0.88429" gradientTransform="matrix(1622.910156,0,0,1860.734375,566.828125,630.695313)">
<stop offset="0" style="stop-color:rgb(100%,87.843137%,32.156863%);stop-opacity:1;"/>
<stop offset="1" style="stop-color:rgb(100%,76.470588%,19.215686%);stop-opacity:1;"/>
</linearGradient>
</defs>
<g id="surface1">
<path style=" stroke:none;fill-rule:nonzero;fill:url(#linear0);" d="M 1087.605469 0.707031 C 532.027344 0.707031 566.71875 276.34375 566.71875 276.34375 L 567.335938 561.910156 L 1097.515625 561.910156 L 1097.515625 647.648438 L 356.757812 647.648438 C 356.757812 647.648438 1.242188 601.519531 1.242188 1242.84375 C 1.242188 1884.1875 311.542969 1861.441406 311.542969 1861.441406 L 496.730469 1861.441406 L 496.730469 1563.832031 C 496.730469 1563.832031 486.746094 1208.832031 802.078125 1208.832031 L 1327.921875 1208.832031 C 1327.921875 1208.832031 1623.355469 1214.292969 1623.355469 882.175781 L 1623.355469 333.039062 C 1623.355469 333.039062 1668.226562 0.707031 1087.605469 0.707031 Z M 795.265625 192.746094 C 820.570312 192.71875 844.84375 204.207031 862.734375 224.675781 C 880.628906 245.144531 890.667969 272.914062 890.644531 301.863281 C 890.667969 330.808594 880.628906 358.582031 862.734375 379.050781 C 844.84375 399.519531 820.570312 411.007812 795.265625 410.980469 C 769.964844 411.007812 745.691406 399.519531 727.800781 379.050781 C 709.90625 358.582031 699.867188 330.808594 699.890625 301.863281 C 699.867188 272.914062 709.90625 245.144531 727.800781 224.675781 C 745.691406 204.207031 769.964844 192.71875 795.265625 192.746094 Z M 795.265625 192.746094 "/>
<path style=" stroke:none;fill-rule:nonzero;fill:url(#linear1);" d="M 1103.382812 2491.429688 C 1658.960938 2491.429688 1624.273438 2215.792969 1624.273438 2215.792969 L 1623.65625 1930.234375 L 1093.46875 1930.234375 L 1093.46875 1844.5 L 1834.226562 1844.5 C 1834.226562 1844.5 2189.738281 1890.628906 2189.738281 1249.285156 C 2189.738281 607.949219 1879.4375 630.695312 1879.4375 630.695312 L 1694.25 630.695312 L 1694.25 928.292969 C 1694.25 928.292969 1704.234375 1283.292969 1388.902344 1283.292969 L 863.0625 1283.292969 C 863.0625 1283.292969 567.625 1277.832031 567.625 1609.960938 L 567.625 2159.109375 C 567.625 2159.109375 522.765625 2491.429688 1103.375 2491.429688 Z M 1395.722656 2299.410156 C 1370.421875 2299.4375 1346.148438 2287.949219 1328.257812 2267.480469 C 1310.363281 2247.011719 1300.324219 2219.242188 1300.34375 2190.292969 C 1300.320312 2161.34375 1310.359375 2133.574219 1328.253906 2113.101562 C 1346.144531 2092.628906 1370.417969 2081.140625 1395.722656 2081.167969 C 1421.027344 2081.140625 1445.300781 2092.628906 1463.191406 2113.097656 C 1481.082031 2133.566406 1491.125 2161.335938 1491.101562 2190.285156 C 1491.125 2219.230469 1481.082031 2247 1463.191406 2267.472656 C 1445.300781 2287.941406 1421.027344 2299.429688 1395.722656 2299.402344 Z M 1395.722656 2299.410156 "/>
</g>
</svg>
