<?xml version="1.0" encoding="UTF-8"?>
<svg xmlns="http://www.w3.org/2000/svg" xmlns:xlink="http://www.w3.org/1999/xlink" width="2194px" height="2500px" viewBox="0 0 2194 2500" version="1.1">
<g id="surface1">
<path style=" stroke:none;fill-rule:nonzero;fill:rgb(14.117648%,53.725493%,79.215688%);fill-opacity:1;" d="M 62.703125 893.683594 C 62.703125 893.683594 10.765625 850.242188 73.089844 792.234375 L 218.296875 641.574219 C 218.296875 641.574219 259.84375 590.851562 303.773438 635.042969 L 1643.742188 1812.222656 L 1643.742188 2376.707031 C 1643.742188 2376.707031 1643.09375 2465.347656 1545.0625 2455.554688 Z M 62.703125 893.683594 "/>
<path style=" stroke:none;fill-rule:nonzero;fill:rgb(6.27451%,43.921569%,70.19608%);fill-opacity:1;" d="M 408.082031 1257.53125 L 62.703125 1621.886719 C 62.703125 1621.886719 27.210938 1652.519531 62.703125 1707.261719 L 223.054688 1876.507812 C 223.054688 1876.507812 261.144531 1923.964844 317.410156 1869.976562 L 683.5625 1547.808594 Z M 408.082031 1257.53125 "/>
<path style=" stroke:none;fill-rule:nonzero;fill:rgb(3.137255%,46.666667%,72.549021%);fill-opacity:1;" d="M 1014.441406 1260.546875 L 1647.855469 699.328125 L 1643.742188 137.855469 C 1643.742188 137.855469 1616.691406 15.316406 1526.453125 79.097656 L 683.5625 969.265625 Z M 1014.441406 1260.546875 "/>
<path style=" stroke:none;fill-rule:nonzero;fill:rgb(23.529412%,60.000002%,83.137256%);fill-opacity:1;" d="M 1545.0625 2456.308594 C 1581.851562 2500 1626.429688 2485.6875 1626.429688 2485.6875 L 2120.046875 2203.445312 C 2183.234375 2153.476562 2174.363281 2091.453125 2174.363281 2091.453125 L 2174.363281 406.035156 C 2174.363281 331.960938 2109.007812 306.347656 2109.007812 306.347656 L 1681.179688 67.046875 C 1587.695312 0 1526.453125 79.097656 1526.453125 79.097656 C 1526.453125 79.097656 1605.222656 13.308594 1643.742188 137.855469 L 1643.742188 2366.414062 C 1643.742188 2381.730469 1640.929688 2396.796875 1635.300781 2410.355469 C 1624.050781 2436.722656 1599.597656 2461.328125 1540.949219 2451.035156 Z M 1545.0625 2456.308594 "/>
</g>
</svg>
